<?xml version="1.0" encoding="UTF-8"?>
<!-- Generator: Adobe Illustrator 16.0.0, SVG Export Plug-In . SVG Version: 6.00 Build 0)  -->
<!DOCTYPE svg PUBLIC "-//W3C//DTD SVG 1.1//EN" "http://www.w3.org/Graphics/SVG/1.1/DTD/svg11.dtd">
<svg version="1.1" id="Layer_1" xmlns="http://www.w3.org/2000/svg" xmlns:xlink="http://www.w3.org/1999/xlink" x="0px" y="0px" width="432.661px" height="432.66px" viewBox="32.159 32.984 432.661 432.66" enable-background="new 32.159 32.984 432.661 432.66" xml:space="preserve">
<path display="none" stroke="#000000" stroke-width="3" d="M83.138,422.001c14.268-7.396,32.348-40.39,27.493-61.188l0.73-0.397  l-0.734,0.394c19.19-10.41,46-14.305,75.144-10.414c9.717,1.299,19.693,3.461,29.732,6.535c1.447,0.442,2.896,0.904,4.345,1.387  c62.373,20.713,102.489,68.958,89.604,107.759c-12.886,38.8-73.894,53.462-136.267,32.749c-6.436-2.139-12.634-4.568-18.562-7.251  c-9.627-4.356-18.54-9.379-26.594-14.895c-23.372-16.002-39.514-36.146-44.893-56.181"/>
<path d="M102.058,254c-12.758,34.439-22.291,76.631,3,86c33.663,12.471,83.824-22.8,96-55.666c12.758-34.439-0.135-72.388-25.333-82  C143.392,190,114.815,219.56,102.058,254z"/>
<path fill="none" stroke="#000000" d="M193.011,301.275"/>
<path fill="none" stroke="#000000" d="M196.064,316.993"/>
<path fill="none" stroke="#000000" d="M196.064,316.993"/>
<path fill="#FFCC00" stroke="#000000" d="M101.547,259.475c-0.274,1.762-0.455,3.496-0.548,5.185  c-0.648,11.812,3.018,21.346,9.044,22.282c6.888,1.072,14.252-9.485,16.447-23.584c1.577-10.125,0.058-19.321-3.475-24.099  c-1.386-1.873-3.082-3.066-5.022-3.368C111.106,234.819,103.743,245.377,101.547,259.475z"/>
<path fill="none" stroke="#000000" d="M196.064,316.993"/>
<path fill="none" stroke="#000000" d="M196.064,316.993"/>
<path fill="none" stroke="#000000" d="M210.176,282.604"/>
<path stroke="#000000" d="M123.017,239.261c0,0-8.937,29.785-22.03,25.701c0,0,1.606-12.344,3.825-17.103  C113.142,230,120.227,236.69,123.017,239.261z"/>
<path d="M419.66,72.839c-19.633-28.898-82.469-32.266-137.77,23.572c-64.365,64.992-65.932,148.653-59.195,171.183  c0,0,61.779-9.802,125.611-55.64C405.402,170.955,447.109,113.243,419.66,72.839z"/>
<path fill="none" stroke="#000000" d="M55.392,147"/>
<path d="M34.749,172.609c4.467,3.4,11.614-0.125,17.69-8.109s4.727-18.231,4.503-18.402c0,0-13.016-0.685-19.092,7.299  C31.774,161.382,30.28,169.209,34.749,172.609z"/>
<path fill="none" stroke="#000000" stroke-width="2" d="M135.225,209.167c0-31.84-36.526-62.167-78.901-62.167"/>
<path fill="none" stroke="#000000" d="M55.392,173"/>
<path d="M37.749,204.609c4.467,3.4,11.614-0.125,17.69-8.109s4.727-18.231,4.503-18.402c0,0-13.016-0.685-19.092,7.299  C34.774,193.382,33.28,201.209,37.749,204.609z"/>
<path fill="none" stroke="#000000" stroke-width="2" d="M138.225,241.167c0-31.84-36.526-62.167-78.901-62.167"/>
<path d="M464.816,435.825c0.514-1.231-56.729-38.234-57.648-37.873c-1.092,0.429-9.59,20.192-9.367,22.094  C398.012,421.831,464.496,436.593,464.816,435.825z"/>
<path fill="#FFCC00" d="M276.391,390.949"/>
<path d="M393.066,404.98c-17.299,39.727-73.465,53.579-136.76,26.02c-63.293-27.56-81.672-71.952-64.374-111.678  c17.299-39.725,63.718-59.744,127.017-32.186C382.242,314.699,410.361,365.253,393.066,404.98z"/>
<path fill="#FFCC00" stroke="#FFCC66" stroke-width="2" d="M324.781,290.84c65.629,30.526,85.848,74.693,69.168,115.579  c-13.979,34.266-68.094,53.441-133.688,25.147c0,0,10.889-17.036,33.902-65.4C316.189,319.879,324.781,290.84,324.781,290.84z"/>
</svg>